<svg xmlns="http://www.w3.org/2000/svg" xmlns:xlink="http://www.w3.org/1999/xlink" width="30" height="25" viewBox="0 0 30 25">
    <defs>
        <path id="a" d="M.952 2.454l-.888.927 3.493 3.675 6.004-5.877L8.68.252 3.557 5.195z"/>
    </defs>
    <g fill="none" fill-rule="evenodd">
        <path fill="#000" fill-rule="nonzero" d="M28.056 8.333h-16.68v2.079h16.68V8.333zM29.1 18.725v-2.079l-1.043-5.195h-16.68l-1.042 5.195v2.079h1.042v6.234h10.425v-6.234h4.17v6.234h2.085v-6.234H29.1zm-9.383 4.156h-6.255v-4.156h6.255v4.156z"/>
        <g fill-rule="nonzero">
            <path fill="#00A032" d="M8.628 1.667c-3.763 0-6.824 2.99-6.824 6.666C1.804 12.01 4.865 15 8.628 15s6.824-2.99 6.824-6.667c0-3.676-3.061-6.666-6.824-6.666z"/>
            <path fill="#FFF" d="M8.628 1.667c-3.763 0-6.824 2.99-6.824 6.666C1.804 12.01 4.865 15 8.628 15s6.824-2.99 6.824-6.667c0-3.676-3.061-6.666-6.824-6.666zm0-1.245c4.466 0 8.097 3.548 8.097 7.911 0 4.364-3.63 7.911-8.097 7.911-4.466 0-8.097-3.547-8.097-7.91C.53 3.97 4.16.421 8.628.421z"/>
        </g>
        <g transform="translate(3.51 5)">
            <mask id="b" fill="#fff">
                <use xlink:href="#a"/>
            </mask>
            <use fill="#000" xlink:href="#a"/>
            <g fill="#FFF" mask="url(#b)">
                <path d="M-5-6.552h21.91V15.36H-5z"/>
            </g>
        </g>
    </g>
</svg>
